<svg xmlns="http://www.w3.org/2000/svg" viewBox="0 0 24 24" id="link">
  <path fill="#91cafe" d="m13.944,10.056c-.293-.293-.768-.293-1.061,0s-.293.768,0,1.061c.425.425.659.99.659,1.591s-.234,1.166-.659,1.591l-4.242,4.243c-.877.876-2.306.878-3.183,0-.877-.877-.877-2.305,0-3.182l2.121-2.122c.293-.293.293-.768,0-1.061s-.768-.293-1.061,0l-2.121,2.122c-1.461,1.462-1.461,3.841,0,5.303.731.731,1.691,1.096,2.651,1.096s1.921-.365,2.652-1.096l4.242-4.243c.708-.708,1.099-1.65,1.099-2.652s-.391-1.943-1.099-2.651Z"></path>
  <path fill="#c8e4fe" d="m19.602,4.398c-1.464-1.462-3.842-1.461-5.304,0l-4.242,4.243c-.708.708-1.099,1.65-1.099,2.652s.391,1.943,1.099,2.651c.146.146.338.22.53.22s.384-.073.53-.22c.293-.293.293-.768,0-1.061-.425-.425-.659-.99-.659-1.591s.234-1.166.659-1.591l4.242-4.243c.876-.876,2.305-.878,3.183,0,.877.877.877,2.305,0,3.182l-2.121,2.122c-.293.293-.293.768,0,1.061s.768.293,1.061,0l2.121-2.122c1.461-1.462,1.461-3.841,0-5.303Z"></path>
</svg>
