<svg xmlns="http://www.w3.org/2000/svg" id="layout" viewBox="0 0 64 64">
  <path d="M61,14H3c-.55,0-1,.45-1,1v36c0,2.76,2.24,5,5,5h50c2.76,0,5-2.24,5-5V15c0-.55-.45-1-1-1Z" style="stroke-width:0;fill:#dceef2"></path>
  <path d="M57,8H7c-2.76,0-5,2.24-5,5v3h60v-3c0-2.76-2.24-5-5-5Z" style="stroke-width:0;fill:#67788c"></path>
  <circle cx="56" cy="12" r="1" style="stroke-width:0;fill:#fff"></circle>
  <circle cx="51" cy="12" r="1" style="stroke-width:0;fill:#fff"></circle>
  <circle cx="46" cy="12" r="1" style="stroke-width:0;fill:#fff"></circle>
  <rect width="22" height="19" x="8" y="19" rx="1" ry="1" style="stroke-width:0;fill:#add4d9"></rect>
  <rect width="14" height="10" x="25" y="41" rx="1" ry="1" style="stroke-width:0;fill:#f2865f"></rect>
  <rect width="14" height="10" x="42" y="41" rx="1" ry="1" style="fill:#f2cc5d;stroke-width:0"></rect>
  <rect width="14" height="10" x="8" y="41" rx="1" ry="1" style="fill:#f2cc5d;stroke-width:0"></rect>
  <path d="M35 22h20c.55 0 1-.45 1-1s-.45-1-1-1h-20c-.55 0-1 .45-1 1s.45 1 1 1ZM55 25h-20c-.55 0-1 .45-1 1s.45 1 1 1h20c.55 0 1-.45 1-1s-.45-1-1-1ZM55 30h-20c-.55 0-1 .45-1 1s.45 1 1 1h20c.55 0 1-.45 1-1s-.45-1-1-1ZM55 35h-13c-.55 0-1 .45-1 1s.45 1 1 1h13c.55 0 1-.45 1-1s-.45-1-1-1Z" style="stroke-width:0;fill:#add4d9"></path>
</svg>
