<svg width="24" height="24" viewBox="0 0 24 24" fill="none" xmlns="http://www.w3.org/2000/svg">
  <path d="M24 5.457v13.909c0 .904-.732 1.636-1.636 1.636h-3.819V11.73L12 16.64l-6.545-4.91v9.273H1.636A1.636 1.636 0 0 1 0 19.366V5.457c0-.904.732-1.636 1.636-1.636h3.819l6.545 4.91 6.545-4.91h3.819c.904 0 1.636.732 1.636 1.636z" fill="#EA4335"/>
  <path d="M12 16.64L24 5.457h-3.819L12 10.367 3.819 5.457H0L12 16.64z" fill="#FBBC05"/>
  <path d="M12 16.64L0 5.457v13.909c0 .904.732 1.636 1.636 1.636h3.819V11.73L12 16.64z" fill="#34A853"/>
  <path d="M12 16.64L24 5.457v13.909c0 .904-.732 1.636-1.636 1.636h-3.819V11.73L12 16.64z" fill="#EA4335"/>
</svg>